<?xml version="1.0" standalone="no"?>
<!DOCTYPE svg PUBLIC "-//W3C//DTD SVG 20010904//EN"
 "http://www.w3.org/TR/2001/REC-SVG-20010904/DTD/svg10.dtd">
<svg version="1.0" xmlns="http://www.w3.org/2000/svg"
 width="700.000000pt" height="700.000000pt" viewBox="0 0 700.000000 700.000000"
 preserveAspectRatio="xMidYMid meet">
<metadata>
Created by potrace 1.14, written by Peter Selinger 2001-2017
</metadata>
<g transform="translate(0.000000,700.000000) scale(0.100000,-0.100000)"
fill="#000000" stroke="none">
<path d="M3392 6950 c-46 -27 -86 -50 -88 -50 -2 0 -21 -11 -42 -24 -20 -13
-82 -49 -137 -81 -55 -32 -129 -75 -165 -95 -297 -173 -623 -360 -626 -360 -2
0 -21 -11 -42 -24 -49 -31 -532 -311 -786 -456 -17 -9 -101 -58 -186 -107 -85
-50 -174 -101 -197 -114 -183 -105 -592 -343 -608 -355 -20 -15 -20 -26 -20
-1778 0 -1721 0 -1764 19 -1785 11 -12 22 -21 26 -21 4 0 297 -169 651 -376
354 -207 658 -385 676 -395 18 -10 167 -97 333 -194 166 -97 315 -184 333
-194 18 -10 111 -65 207 -121 409 -240 657 -385 690 -402 37 -19 85 -24 94 -9
4 5 39 28 79 50 39 22 95 53 122 69 120 69 1071 613 1390 795 193 110 364 208
380 217 17 10 122 71 235 135 113 64 223 127 245 140 106 61 244 139 280 160
163 92 222 129 237 148 16 21 17 131 18 1774 l0 1752 -23 26 c-17 20 -309 195
-604 361 -23 13 -93 54 -155 90 -62 37 -126 74 -143 84 -59 34 -423 244 -570
330 -82 48 -166 97 -185 108 -19 10 -315 182 -657 380 -421 245 -634 363 -660
367 -33 5 -49 -2 -121 -45z m498 -420 c96 -57 189 -111 205 -120 17 -9 217
-126 445 -260 228 -133 429 -251 447 -261 162 -92 1244 -726 1263 -739 l24
-18 1 -1431 c0 -787 -1 -1431 -2 -1431 -2 0 -65 107 -270 455 -213 362 -271
461 -290 495 -11 19 -54 92 -97 162 -42 69 -76 129 -76 133 0 3 -11 21 -25 39
-14 18 -25 36 -25 39 0 3 -42 77 -94 164 -51 87 -139 237 -196 333 -57 96
-140 238 -185 315 -46 77 -92 156 -102 175 -11 19 -47 80 -80 135 -51 84 -266
450 -323 550 -10 16 -100 170 -201 340 -100 171 -264 450 -364 620 -100 171
-197 334 -214 363 -17 29 -28 51 -24 49 5 -2 87 -51 183 -107z m-641 63 c-26
-46 -60 -105 -364 -623 -131 -223 -269 -459 -308 -525 -38 -66 -82 -140 -97
-165 -15 -25 -146 -247 -290 -495 -144 -247 -271 -462 -281 -477 -10 -15 -19
-29 -19 -32 0 -2 -35 -65 -79 -138 -43 -73 -232 -394 -419 -713 -618 -1055
-662 -1130 -670 -1133 -4 -1 -7 638 -7 1420 l0 1422 60 38 c33 21 71 44 85 51
21 11 257 148 370 215 16 9 80 47 142 83 62 36 451 263 863 504 413 241 757
442 765 447 8 4 71 42 140 83 69 41 126 74 127 75 2 0 -7 -17 -18 -37z m128
-1419 c-1 -2 -31 -6 -66 -9 -95 -9 -132 -44 -90 -86 18 -18 29 -20 90 -14 l69
6 0 -743 -1 -743 -415 -240 c-229 -132 -433 -250 -455 -261 -21 -12 -44 -26
-51 -31 -7 -6 -38 -24 -68 -40 -30 -17 -90 -51 -133 -76 -43 -26 -80 -47 -82
-47 -2 0 -33 -18 -69 -40 -36 -22 -68 -40 -70 -40 -2 0 -19 41 -37 91 -38 107
-63 132 -104 105 -33 -22 -32 -48 6 -137 17 -41 33 -83 36 -95 4 -18 -58 -56
-488 -305 -610 -352 -543 -315 -529 -288 7 12 116 198 243 413 126 215 238
405 247 422 49 86 365 622 377 639 13 18 14 17 9 -18 -9 -58 35 -93 84 -67 18
10 24 26 35 100 3 19 10 60 15 91 7 38 7 65 -1 87 -10 30 -2 46 230 441 133
225 244 416 247 425 4 12 11 13 31 5 29 -11 31 -10 160 83 45 32 85 67 88 78
10 31 -3 57 -35 68 -24 9 -35 7 -64 -13 -20 -13 -46 -29 -58 -36 -20 -10 -21
-10 -12 2 7 8 86 140 176 294 91 154 202 344 249 423 46 79 92 156 101 172 9
16 79 134 154 262 75 128 146 250 158 270 l21 37 3 -591 c1 -325 1 -592 -1
-594z m296 1084 c29 -51 116 -199 192 -328 76 -129 144 -244 150 -255 6 -11
45 -78 88 -150 42 -71 148 -251 235 -400 l159 -270 -19 -26 c-12 -16 -18 -34
-14 -45 3 -11 45 -56 94 -101 87 -80 121 -128 261 -377 10 -17 59 -101 110
-186 50 -85 99 -180 108 -210 11 -38 28 -66 54 -90 23 -22 115 -168 244 -390
114 -195 220 -375 235 -400 15 -25 112 -189 215 -365 103 -176 208 -356 235
-400 80 -134 79 -130 13 -91 -97 56 -756 437 -793 459 -122 69 -260 150 -260
153 0 2 7 1 15 -2 17 -7 70 4 62 13 -3 3 3 28 15 57 30 76 58 168 58 192 0 32
-30 50 -77 45 -7 0 -20 -27 -28 -58 -9 -32 -28 -88 -42 -125 -17 -45 -23 -75
-19 -93 l7 -27 -43 24 c-294 170 -1057 611 -1170 676 -82 46 -148 90 -149 96
-5 54 -2 2766 3 2766 3 0 31 -42 61 -92z m153 -3069 c181 -105 343 -199 359
-209 179 -103 248 -143 425 -245 113 -65 209 -121 214 -126 4 -4 -15 -38 -43
-75 -54 -73 -61 -97 -34 -126 34 -38 79 -12 143 82 l40 59 88 -51 c48 -28 130
-75 182 -106 52 -30 149 -86 215 -125 66 -38 140 -81 165 -95 25 -14 57 -33
72 -43 14 -11 28 -19 31 -19 6 0 259 -148 268 -157 4 -4 -368 -8 -826 -8 -459
0 -835 2 -835 4 0 2 11 12 24 22 33 26 39 56 15 80 -27 27 -60 24 -137 -14
-37 -19 -83 -40 -102 -47 -19 -7 -43 -20 -53 -29 -15 -13 -83 -15 -500 -16
l-482 0 -92 32 c-51 18 -101 37 -112 42 -53 29 -69 30 -96 9 -20 -16 -26 -28
-23 -51 l3 -31 -862 -1 c-474 0 -859 3 -855 6 5 5 368 215 570 330 18 11 63
37 100 58 37 21 131 75 209 120 78 44 146 81 151 81 5 0 34 -33 65 -72 103
-134 149 -161 175 -103 17 36 15 47 -11 75 -37 41 -129 161 -125 164 5 5 268
156 318 184 25 14 113 64 195 112 83 48 263 151 400 230 195 112 422 243 431
249 1 1 149 -85 330 -190z m2179 -1471 c4 -4 -259 -164 -455 -276 -19 -11 -98
-57 -175 -102 -77 -46 -165 -97 -195 -115 -30 -18 -260 -153 -510 -300 -250
-147 -468 -276 -485 -285 -16 -10 -93 -55 -170 -100 -147 -87 -378 -223 -468
-276 l-52 -30 -75 44 c-41 25 -90 53 -109 64 -18 10 -81 47 -140 82 -97 58
-1267 746 -1336 786 -16 9 -208 122 -425 250 -217 128 -405 237 -417 243 -13
6 -23 13 -23 16 0 7 5028 7 5035 -1z"/>
<path d="M2920 5095 c-112 -41 -144 -62 -148 -99 -7 -59 34 -70 114 -32 27 13
74 31 104 41 60 19 99 48 96 71 -4 23 -34 54 -53 54 -10 -1 -61 -17 -113 -35z"/>
<path d="M1824 3440 c-35 -14 -36 -24 -19 -192 8 -88 35 -131 75 -121 23 6 55
47 47 60 -6 9 -19 120 -21 178 -3 66 -34 94 -82 75z"/>
<path d="M3672 5174 c-15 -10 -22 -25 -22 -49 0 -39 13 -49 80 -60 25 -4 72
-14 105 -22 71 -18 111 -19 131 -2 19 16 18 63 -3 81 -18 15 -110 41 -193 53
-25 3 -52 8 -60 11 -9 2 -26 -3 -38 -12z"/>
<path d="M4103 5069 c-24 -9 -38 -46 -29 -77 4 -11 44 -39 99 -67 50 -26 101
-54 112 -62 11 -7 32 -13 47 -13 23 0 29 6 37 36 17 60 3 76 -111 132 -126 61
-128 61 -155 51z"/>
<path d="M5090 3680 c-11 -7 -14 -24 -11 -67 5 -84 4 -261 -2 -315 -7 -60 20
-101 60 -93 14 2 28 7 31 10 12 11 20 280 12 390 -5 72 -44 104 -90 75z"/>
<path d="M4555 2284 c-112 -89 -135 -113 -135 -138 0 -27 29 -56 56 -56 19 0
114 69 185 135 43 40 50 72 21 98 -29 27 -52 20 -127 -39z"/>
<path d="M2392 2269 c-12 -5 -22 -12 -23 -16 0 -4 -2 -17 -4 -28 -5 -23 48
-75 146 -144 75 -53 98 -56 119 -15 17 31 3 58 -53 101 -23 17 -60 47 -81 65
-45 38 -73 48 -104 37z"/>
</g>
</svg>
